IKResults
version=1
nRows=7
nColumns=40
inDegrees=yes

Units are S.I. units (second, meters, Newtons, ...)
Angles are in degrees.

endheader
time	pelvis_tilt	pelvis_list	pelvis_rotation	pelvis_tx	pelvis_ty	pelvis_tz	hip_flexion_r	hip_adduction_r	hip_rotation_r	knee_angle_r	knee_angle_r_beta	ankle_angle_r	subtalar_angle_r	mtp_angle_r	hip_flexion_l	hip_adduction_l	hip_rotation_l	knee_angle_l	knee_angle_l_beta	ankle_angle_l	subtalar_angle_l	mtp_angle_l	lumbar_extension	lumbar_bending	lumbar_rotation	arm_flex_r	arm_add_r	arm_rot_r	elbow_flex_r	pro_sup_r	wrist_flex_r	wrist_dev_r	arm_flex_l	arm_add_l	arm_rot_l	elbow_flex_l	pro_sup_l	wrist_flex_l	wrist_dev_l
      1.61000000	     18.39076576	      1.37566856	      0.67502309	      0.49601595	      0.95634389	     -1.45546386	     -3.41189467	     -4.35223014	     -6.80318892	    -53.53743319	     -0.93440448	      5.02798497	    -16.27034922	     14.23680372	    -18.62852591	     -3.31920189	     15.75442745	    -14.21328034	     -0.24806854	      9.30901585	     -2.17262106	     -4.00309419	    -22.06667068	     -1.72793296	     -1.63151266	     -4.41295134	     -8.40315804	     -3.92476485	     19.16484422	     89.95437384	      0.00000000	      0.00000000	      6.76808112	      8.31959074	      5.70549477	     24.75580478	     89.95437384	      0.00000000	      0.00000000
      1.62000000	     18.05085365	      1.42266754	      0.90839720	      0.50538127	      0.95576057	     -1.45678264	     -1.99747314	     -4.42797992	     -7.16877101	    -52.24848317	     -0.91190806	      5.54423452	    -16.18075434	     14.03042721	    -18.85621330	     -3.36848349	     15.80181624	    -14.25600314	     -0.24881419	      9.43233863	     -2.02548668	     -3.96539396	    -21.86796990	     -1.60787004	     -1.85365559	     -4.99209622	     -8.36292050	     -3.79411983	     18.69683176	     89.95437384	      0.00000000	      0.00000000	      7.99897994	      8.35779317	      5.64642809	     25.79840766	     89.95437384	      0.00000000	      0.00000000
      1.63000000	     18.14447512	      0.94557859	      1.88968639	      0.51431350	      0.95597324	     -1.45809456	     -1.49120994	     -3.60415579	     -7.91936832	    -50.24538276	     -0.87694736	      6.18431626	    -16.30207037	     14.17560127	    -19.56705202	     -2.62635374	     14.64254921	    -14.15784779	     -0.24710106	      9.93076817	     -1.59327740	     -4.11002789	    -22.20398162	     -0.77660554	     -2.76407084	     -5.05010313	     -8.14418137	     -3.85227537	     17.63804776	     89.95437384	      0.00000000	      0.00000000	      9.02687088	      8.65213424	      5.27742523	     27.32078967	     89.95437384	      0.00000000	      0.00000000
      1.64000000	     17.77528693	      1.00188688	      1.86095654	      0.52412284	      0.95521779	     -1.45907909	     -0.14571743	     -3.77168148	     -8.21162350	    -48.72339981	     -0.85038375	      6.55981147	    -16.20582918	     14.04092797	    -19.89247172	     -2.78549683	     14.79018013	    -14.05983293	     -0.24539038	     10.14798078	     -1.50677983	     -4.08872961	    -21.87630543	     -0.73633527	     -2.75285528	     -5.61811959	     -8.13907854	     -3.78558223	     17.14736844	     89.95437384	      0.00000000	      0.00000000	     10.12487175	      8.63838912	      5.20710538	     28.37700875	     89.95437384	      0.00000000	      0.00000000
      1.65000000	     18.02357743	      0.48445907	      2.27171341	      0.53361074	      0.95551139	     -1.45970384	      0.08657639	     -2.93133595	     -8.51946159	    -46.34364000	     -0.80884911	      6.98326822	    -16.26480739	     14.31741402	    -21.01606673	     -2.20099958	     14.16183513	    -13.57421224	     -0.23691470	     10.51933827	     -1.11950179	     -4.22758599	    -22.27996971	     -0.00546986	     -3.09961531	     -5.79705206	     -8.02760069	     -3.79530975	     16.28765260	     89.95437384	      0.00000000	      0.00000000	     10.94224227	      8.88543139	      4.85542928	     30.11496160	     89.95437384	      0.00000000	      0.00000000
      1.66000000	     17.89933623	      0.26692996	      2.58559152	      0.54307206	      0.95507384	     -1.46044945	      0.83714351	     -2.63424931	     -9.05921198	    -44.19818034	     -0.77140377	      7.14893457	    -16.09816251	     14.41783050	    -21.64170084	     -1.93687248	     13.83200785	    -13.30861289	     -0.23227911	     10.73110223	     -0.76175454	     -4.33337837	    -22.25410657	      0.37859204	     -3.38876769	     -6.18307920	     -7.96255987	     -3.65750562	     15.78048549	     89.95437384	      0.00000000	      0.00000000	     11.81886207	      9.06532601	      4.64354802	     31.56631492	     89.95437384	      0.00000000	      0.00000000
      1.67000000	     17.54668446	      0.13663498	      2.69446347	      0.55245535	      0.95418440	     -1.46085842	      1.90202243	     -2.44778602	     -9.46316069	    -42.10958357	     -0.73495088	      7.17221819	    -15.64885423	     14.33279003	    -22.01104583	     -1.83300772	     13.60719831	    -13.07726414	     -0.22824132	     11.11696200	     -0.70609539	     -4.38347251	    -21.98635328	      0.58533971	     -3.52807997	     -6.50879007	     -7.88217977	     -3.57456691	     15.19177581	     89.95437384	      0.00000000	      0.00000000	     12.62447555	      9.22571450	      4.56784097	     33.06478479	     89.95437384	      0.00000000	      0.00000000
